<?xml version="1.0" standalone="no"?>
<!DOCTYPE svg PUBLIC "-//W3C//DTD SVG 20010904//EN"
 "http://www.w3.org/TR/2001/REC-SVG-20010904/DTD/svg10.dtd">
<svg version="1.0" xmlns="http://www.w3.org/2000/svg"
 width="320.000000pt" height="74.000000pt" viewBox="0 0 320.000000 74.000000"
 preserveAspectRatio="xMidYMid meet">

<g transform="translate(0.000000,74.000000) scale(0.100000,-0.100000)"
fill="#000000" stroke="none">
<path d="M2824 733 c-52 -10 -62 -37 -104 -279 -22 -126 -43 -241 -46 -257
l-6 -27 129 0 c156 0 197 10 223 53 11 18 20 35 20 40 0 4 -56 7 -125 7 -106
0 -125 2 -125 15 0 15 64 384 75 433 5 22 2 24 -41 15z"/>
<path d="M145 570 c-12 -4 -27 -16 -35 -25 -8 -10 -34 -131 -60 -276 l-46
-259 47 0 c37 0 49 4 53 18 4 15 26 130 26 139 0 2 38 3 85 3 95 0 143 15 169
51 32 46 25 49 -109 49 -69 0 -125 3 -125 8 0 4 11 70 25 146 14 77 25 144 25
148 0 10 -29 9 -55 -2z"/>
<path d="M274 570 c-25 -10 -64 -57 -64 -76 0 -11 25 -14 115 -14 100 0 117
-2 122 -17 4 -9 -1 -64 -11 -121 -10 -57 -15 -107 -11 -110 11 -11 76 31 90
59 8 14 21 72 30 127 18 112 13 136 -31 152 -31 12 -211 12 -240 0z"/>
<path d="M757 566 c-153 -55 -223 -242 -126 -342 58 -60 145 -70 210 -23 l32
23 -7 -27 c-6 -27 -6 -27 43 -27 46 0 50 2 55 27 3 16 17 94 31 175 27 156 26
176 -15 198 -27 14 -178 12 -223 -4z m142 -100 c14 -16 5 -88 -16 -129 -32
-63 -130 -88 -170 -44 -33 35 -36 62 -15 110 13 29 30 49 53 60 42 20 132 22
148 3z"/>
<path d="M1063 454 c-12 -69 -20 -131 -18 -137 2 -7 6 -24 9 -39 21 -97 156
-138 236 -72 33 28 39 19 20 -30 -17 -45 -66 -68 -137 -64 l-61 4 -7 -44 c-8
-55 0 -62 74 -62 75 0 125 17 167 58 53 51 69 96 104 292 17 96 34 185 37 198
5 21 2 22 -45 22 l-51 0 -10 -55 c-6 -30 -16 -80 -22 -110 -12 -65 -51 -109
-109 -125 -51 -14 -87 0 -96 37 -4 15 0 73 9 128 10 55 17 106 17 113 0 8 -16
12 -48 12 l-48 0 -21 -126z"/>
<path d="M1561 563 c-17 -15 -27 -49 -51 -188 -17 -93 -30 -178 -30 -187 0
-15 9 -18 45 -18 51 0 44 -15 75 160 28 160 23 150 81 150 54 0 103 -20 113
-45 10 -27 7 -85 -9 -168 -8 -43 -15 -83 -15 -88 0 -5 22 -9 49 -9 l48 0 18
109 c20 124 39 164 90 188 47 23 84 10 107 -38 16 -32 17 -42 3 -120 -8 -46
-17 -96 -21 -112 -6 -27 -5 -27 44 -27 l50 0 16 88 c29 163 30 170 12 217 -42
107 -160 134 -269 61 -32 -22 -37 -23 -49 -9 -29 36 -90 53 -189 53 -78 0
-101 -3 -118 -17z"/>
<path d="M2901 562 c-21 -10 -40 -30 -48 -49 l-13 -33 120 0 c92 0 122 -3 126
-13 3 -8 -4 -64 -14 -125 -21 -124 -19 -128 39 -89 44 30 55 54 70 162 21 153
10 165 -149 165 -73 0 -106 -4 -131 -18z"/>
<path d="M2402 558 c-18 -6 -53 -29 -79 -52 -147 -129 -90 -326 93 -326 211 1
326 248 171 364 -32 24 -133 31 -185 14z m136 -113 c70 -82 -53 -215 -151
-163 -50 26 -61 80 -28 134 40 66 133 81 179 29z"/>
</g>
</svg>
